<svg xmlns="http://www.w3.org/2000/svg" viewBox="0 0 120 30" width="120" height="30" fill="none">
  <g stroke="#C79A4A" stroke-width="1.6" opacity=".75">
    <path d="M0 27h120"/>
  </g>
  <g stroke="#B08A52" stroke-width="1.1" opacity=".7">
    <path d="M15 27v-7M75 27v-7M45 27v-9M105 27v-9"/>
    <path d="M8 27c2-3 5-4 7-4M22 27c-2-3-5-4-7-4M68 27c2-3 5-4 7-4M82 27c-2-3-5-4-7-4"/>
    <path d="M38 27c2-3 5-5 7-5M52 27c-2-3-5-5-7-5M98 27c2-3 5-5 7-5M112 27c-2-3-5-5-7-5"/>
  </g>
  <g fill="#C79A4A" opacity=".92">
    <path d="M15 21c-4-3-3-9 0-12 3 3 4 9 0 12Z"/>
    <path d="M75 21c-4-3-3-9 0-12 3 3 4 9 0 12Z"/>
  </g>
  <g fill="#3C8A80" opacity=".92">
    <path d="M45 19V6c1.4 1.4 1.4 11.6 0 13ZM45 19V6c-1.4 1.4-1.4 11.6 0 13Z"/>
    <path d="M44 19c-4-2-7-7-7-12 3 2 6 7 7 12ZM46 19c4-2 7-7 7-12-3 2-6 7-7 12Z"/>
    <path d="M105 19V6c1.4 1.4 1.4 11.6 0 13ZM105 19V6c-1.4 1.4-1.4 11.6 0 13Z"/>
    <path d="M104 19c-4-2-7-7-7-12 3 2 6 7 7 12ZM106 19c4-2 7-7 7-12-3 2-6 7-7 12Z"/>
  </g>
</svg>
